<?xml version="1.0" encoding="utf-8"?>
<!-- Generator: Adobe Illustrator 21.0.0, SVG Export Plug-In . SVG Version: 6.00 Build 0)  -->
<svg version="1.1" id="Layer_1" xmlns="http://www.w3.org/2000/svg" xmlns:xlink="http://www.w3.org/1999/xlink" x="0px" y="0px"
	 viewBox="0 0 1366 768" style="enable-background:new 0 0 1366 768;" xml:space="preserve">
<style type="text/css">
	.st0{fill:#4286A1;}
	.st1{fill:#E35C99;}
	.st2{fill:#00B9C0;}
	.st3{fill:#824589;}
	.st4{fill:#F3A9AD;}
	.st5{fill:#FCDCD9;}
	.st6{fill:#44D8E9;}
	.st7{fill:#FFFFFF;}
	.st8{fill:none;stroke:#00B9C0;stroke-width:0.8814;stroke-miterlimit:10;}
	.st9{fill:#FCF0FF;}
</style>
<g id="XMLID_551_">
	<g id="XMLID_594_">
		
			<rect id="XMLID_640_" x="660.1" y="165.7" transform="matrix(-1 -1.224647e-16 1.224647e-16 -1 1459.2599 389.3493)" class="st0" width="139" height="57.9"/>
		<g id="XMLID_619_">
			
				<rect id="XMLID_637_" x="730.5" y="191.5" transform="matrix(-1 -1.224647e-16 1.224647e-16 -1 1541.9537 478.6179)" class="st1" width="80.9" height="95.6"/>
			<g id="XMLID_630_">
				
					<rect id="XMLID_634_" x="780.8" y="211" transform="matrix(-1 -1.224647e-16 1.224647e-16 -1 1581.6633 449.5273)" class="st2" width="20.1" height="27.6"/>
				
					<rect id="XMLID_631_" x="741.1" y="211" transform="matrix(-1 -1.224647e-16 1.224647e-16 -1 1502.2437 449.5273)" class="st2" width="20.1" height="27.6"/>
			</g>
			
				<rect id="XMLID_627_" x="649.6" y="191.5" transform="matrix(-1 -1.224647e-16 1.224647e-16 -1 1380.0591 478.6179)" class="st1" width="80.9" height="95.6"/>
			<g id="XMLID_620_">
				
					<rect id="XMLID_624_" x="699.8" y="211" transform="matrix(-1 -1.224647e-16 1.224647e-16 -1 1419.769 449.5273)" class="st2" width="20.1" height="27.6"/>
				
					<rect id="XMLID_621_" x="660.1" y="211" transform="matrix(-1 -1.224647e-16 1.224647e-16 -1 1340.3492 449.5273)" class="st2" width="20.1" height="27.6"/>
			</g>
		</g>
		
			<rect id="XMLID_618_" x="634.9" y="251.3" transform="matrix(-1 -1.224647e-16 1.224647e-16 -1 1461.0063 581.0682)" class="st3" width="191.2" height="78.5"/>
		<g id="XMLID_605_">
			<polygon id="XMLID_615_" class="st0" points="753.6,357.6 801.2,357.6 801.2,294.2 777.4,268.8 753.6,294.2 			"/>
			<polygon id="XMLID_612_" class="st2" points="794.1,322 794.1,297.4 777.4,279.5 760.7,297.4 760.7,322 			"/>
			<polygon id="XMLID_609_" class="st0" points="659.8,357.6 707.4,357.6 707.4,294.2 683.6,268.8 659.8,294.2 			"/>
			<polygon id="XMLID_606_" class="st2" points="700.3,322 700.3,297.4 683.6,279.5 666.9,297.4 666.9,322 			"/>
		</g>
		
			<rect id="XMLID_602_" x="634.9" y="329.8" transform="matrix(-1 -1.224647e-16 1.224647e-16 -1 1461.0063 992.3701)" class="st1" width="191.2" height="332.8"/>
		<g id="XMLID_595_">
			
				<rect id="XMLID_599_" x="753.6" y="329.8" transform="matrix(-1 -1.224647e-16 1.224647e-16 -1 1554.8015 992.3701)" class="st2" width="47.5" height="332.8"/>
			
				<rect id="XMLID_596_" x="659.8" y="329.8" transform="matrix(-1 -1.224647e-16 1.224647e-16 -1 1367.2114 992.3701)" class="st2" width="47.5" height="332.8"/>
		</g>
	</g>
	<g id="XMLID_573_">
		<path id="XMLID_591_" class="st1" d="M766,393h24.9v-23.6c0-7.5-5.6-13.5-12.5-13.5l0,0c-6.9,0-12.5,6.1-12.5,13.5V393z"/>
		<path id="XMLID_590_" class="st3" d="M786.8,388.5v-19.1c0-5-3.7-9-8.3-9c-4.6,0-8.3,4-8.3,9v19.1H786.8z"/>
		<path id="XMLID_587_" class="st1" d="M766,452.3h24.9v-23.6c0-7.5-5.6-13.5-12.5-13.5l0,0c-6.9,0-12.5,6.1-12.5,13.5V452.3z"/>
		<path id="XMLID_586_" class="st3" d="M786.8,447.8v-19.1c0-5-3.7-9-8.3-9c-4.6,0-8.3,4-8.3,9v19.1H786.8z"/>
		<path id="XMLID_583_" class="st1" d="M766,511.6h24.9V488c0-7.5-5.6-13.5-12.5-13.5l0,0c-6.9,0-12.5,6.1-12.5,13.5V511.6z"/>
		<path id="XMLID_582_" class="st3" d="M786.8,507.1V488c0-5-3.7-9-8.3-9c-4.6,0-8.3,4-8.3,9v19.1H786.8z"/>
		<path id="XMLID_579_" class="st1" d="M766,570.9h24.9v-23.6c0-7.5-5.6-13.5-12.5-13.5l0,0c-6.9,0-12.5,6.1-12.5,13.5V570.9z"/>
		<path id="XMLID_578_" class="st3" d="M786.8,566.4v-19.1c0-5-3.7-9-8.3-9c-4.6,0-8.3,4-8.3,9v19.1H786.8z"/>
		<path id="XMLID_575_" class="st1" d="M766,632.7h24.9v-23.6c0-7.5-5.6-13.5-12.5-13.5l0,0c-6.9,0-12.5,6.1-12.5,13.5V632.7z"/>
		<path id="XMLID_574_" class="st3" d="M786.8,628.2v-19.1c0-5-3.7-9-8.3-9c-4.6,0-8.3,4-8.3,9v19.1H786.8z"/>
	</g>
	<g id="XMLID_552_">
		<path id="XMLID_570_" class="st1" d="M672.2,393h24.9v-23.6c0-7.5-5.6-13.5-12.5-13.5l0,0c-6.9,0-12.5,6.1-12.5,13.5V393z"/>
		<path id="XMLID_569_" class="st3" d="M693,388.5v-19.1c0-5-3.7-9-8.3-9c-4.6,0-8.3,4-8.3,9v19.1H693z"/>
		<path id="XMLID_566_" class="st1" d="M672.2,452.3h24.9v-23.6c0-7.5-5.6-13.5-12.5-13.5l0,0c-6.9,0-12.5,6.1-12.5,13.5V452.3z"/>
		<path id="XMLID_565_" class="st3" d="M693,447.8v-19.1c0-5-3.7-9-8.3-9c-4.6,0-8.3,4-8.3,9v19.1H693z"/>
		<path id="XMLID_562_" class="st1" d="M672.2,511.6h24.9V488c0-7.5-5.6-13.5-12.5-13.5l0,0c-6.9,0-12.5,6.1-12.5,13.5V511.6z"/>
		<path id="XMLID_561_" class="st3" d="M693,507.1V488c0-5-3.7-9-8.3-9c-4.6,0-8.3,4-8.3,9v19.1H693z"/>
		<path id="XMLID_558_" class="st1" d="M672.2,570.9h24.9v-23.6c0-7.5-5.6-13.5-12.5-13.5l0,0c-6.9,0-12.5,6.1-12.5,13.5V570.9z"/>
		<path id="XMLID_557_" class="st3" d="M693,566.4v-19.1c0-5-3.7-9-8.3-9c-4.6,0-8.3,4-8.3,9v19.1H693z"/>
		<path id="XMLID_554_" class="st1" d="M672.2,632.7h24.9v-23.6c0-7.5-5.6-13.5-12.5-13.5l0,0c-6.9,0-12.5,6.1-12.5,13.5V632.7z"/>
		<path id="XMLID_553_" class="st3" d="M693,628.2v-19.1c0-5-3.7-9-8.3-9c-4.6,0-8.3,4-8.3,9v19.1H693z"/>
	</g>
</g>
<g id="XMLID_458_">
	<polygon id="XMLID_550_" class="st4" points="810.2,391.2 1026.6,391.2 1005.9,325.7 830.8,325.7 	"/>
	<rect id="XMLID_549_" x="804" y="370.4" class="st4" width="228.8" height="292.2"/>
	<rect id="XMLID_546_" x="804" y="370.4" class="st2" width="228.8" height="16.8"/>
	
		<rect id="XMLID_545_" x="850.7" y="313.6" transform="matrix(-1 -1.224647e-16 1.224647e-16 -1 1836.7614 976.1981)" class="st5" width="135.4" height="349"/>
	
		<rect id="XMLID_544_" x="869.5" y="329.8" transform="matrix(-1 -1.224647e-16 1.224647e-16 -1 1836.7616 992.3701)" class="st4" width="97.7" height="332.8"/>
	
		<rect id="XMLID_543_" x="783.4" y="571.4" transform="matrix(-1 -1.224647e-16 1.224647e-16 -1 1836.7616 1233.9822)" class="st5" width="269.9" height="91.2"/>
	
		<rect id="XMLID_540_" x="783.4" y="571.4" transform="matrix(-1 -1.224647e-16 1.224647e-16 -1 1836.7616 1160.1561)" class="st2" width="269.9" height="17.4"/>
	<polygon id="XMLID_537_" class="st2" points="869.5,317.7 918.4,293.6 967.2,317.7 967.2,330.3 869.5,330.3 	"/>
	
		<rect id="XMLID_536_" x="869.5" y="609.1" transform="matrix(-1 -1.224647e-16 1.224647e-16 -1 1836.7616 1271.6776)" class="st4" width="97.7" height="53.5"/>
	
		<rect id="XMLID_533_" x="850.7" y="600.1" transform="matrix(-1 -1.224647e-16 1.224647e-16 -1 1836.7614 1212.578)" class="st2" width="135.4" height="12.3"/>
	<g id="XMLID_486_">
		<g id="XMLID_510_">
			
				<rect id="XMLID_521_" x="999.3" y="448.6" transform="matrix(-1 -1.224647e-16 1.224647e-16 -1 2018.058 916.1331)" class="st5" width="19.4" height="18.9"/>
			
				<rect id="XMLID_518_" x="999.3" y="493.4" transform="matrix(-1 -1.224647e-16 1.224647e-16 -1 2018.058 1005.645)" class="st5" width="19.4" height="18.9"/>
			
				<rect id="XMLID_515_" x="999.3" y="403.8" transform="matrix(-1 -1.224647e-16 1.224647e-16 -1 2018.058 826.6212)" class="st5" width="19.4" height="18.9"/>
			
				<rect id="XMLID_511_" x="999.3" y="538.1" transform="matrix(-1 -1.224647e-16 1.224647e-16 -1 2018.058 1095.1571)" class="st5" width="19.4" height="18.9"/>
		</g>
		<g id="XMLID_487_">
			<g>
				<rect id="XMLID_60_" x="818.4" y="448.6" class="st5" width="19.4" height="18.9"/>
				<rect id="XMLID_59_" x="818.4" y="493.4" class="st5" width="19.4" height="18.9"/>
				<rect id="XMLID_58_" x="818.4" y="403.8" class="st5" width="19.4" height="18.9"/>
				<rect id="XMLID_57_" x="818.4" y="538.1" class="st5" width="19.4" height="18.9"/>
			</g>
		</g>
	</g>
	<g id="XMLID_459_">
		<g id="XMLID_475_">
			
				<rect id="XMLID_485_" x="927.8" y="402.1" transform="matrix(-1 -1.224647e-16 1.224647e-16 -1 1875.0897 823.1792)" class="st5" width="19.4" height="18.9"/>
			
				<rect id="XMLID_484_" x="927.8" y="446.9" transform="matrix(-1 -1.224647e-16 1.224647e-16 -1 1875.0897 912.6913)" class="st5" width="19.4" height="18.9"/>
			
				<rect id="XMLID_483_" x="927.8" y="357.4" transform="matrix(-1 -1.224647e-16 1.224647e-16 -1 1875.0897 733.6672)" class="st5" width="19.4" height="18.9"/>
			
				<rect id="XMLID_482_" x="927.8" y="491.6" transform="matrix(-1 -1.224647e-16 1.224647e-16 -1 1875.0897 1002.2036)" class="st5" width="19.4" height="18.9"/>
			
				<rect id="XMLID_481_" x="927.8" y="536.4" transform="matrix(-1 -1.224647e-16 1.224647e-16 -1 1875.0897 1091.7157)" class="st5" width="19.4" height="18.9"/>
			
				<rect id="XMLID_480_" x="885.4" y="402.1" transform="matrix(-1 -1.224647e-16 1.224647e-16 -1 1790.1656 823.1792)" class="st5" width="19.4" height="18.9"/>
			
				<rect id="XMLID_479_" x="885.4" y="446.9" transform="matrix(-1 -1.224647e-16 1.224647e-16 -1 1790.1656 912.6913)" class="st5" width="19.4" height="18.9"/>
			
				<rect id="XMLID_478_" x="885.4" y="357.4" transform="matrix(-1 -1.224647e-16 1.224647e-16 -1 1790.1656 733.6672)" class="st5" width="19.4" height="18.9"/>
			
				<rect id="XMLID_477_" x="885.4" y="491.6" transform="matrix(-1 -1.224647e-16 1.224647e-16 -1 1790.1656 1002.2036)" class="st5" width="19.4" height="18.9"/>
			
				<rect id="XMLID_476_" x="885.4" y="536.4" transform="matrix(-1 -1.224647e-16 1.224647e-16 -1 1790.1656 1091.7157)" class="st5" width="19.4" height="18.9"/>
		</g>
		<g id="XMLID_460_">
			<g id="XMLID_468_">
				
					<rect id="XMLID_472_" x="1014.6" y="623.7" transform="matrix(-1 -1.224647e-16 1.224647e-16 -1 2048.7129 1266.2585)" class="st4" width="19.4" height="18.9"/>
				
					<rect id="XMLID_469_" x="982.5" y="623.7" transform="matrix(-1 -1.224647e-16 1.224647e-16 -1 1984.4583 1266.2585)" class="st4" width="19.4" height="18.9"/>
			</g>
			<g id="XMLID_461_">
				
					<rect id="XMLID_465_" x="834.8" y="623.7" transform="matrix(-1 -1.224647e-16 1.224647e-16 -1 1689.0649 1266.2585)" class="st4" width="19.4" height="18.9"/>
				
					<rect id="XMLID_462_" x="802.7" y="623.7" transform="matrix(-1 -1.224647e-16 1.224647e-16 -1 1624.8102 1266.2585)" class="st4" width="19.4" height="18.9"/>
			</g>
		</g>
	</g>
</g>
<g id="XMLID_643_">
	
		<rect id="XMLID_704_" x="459.4" y="302.3" transform="matrix(-1 -1.224647e-16 1.224647e-16 -1 1120.7219 969.0745)" class="st3" width="202" height="364.5"/>
	
		<rect id="XMLID_701_" x="480.5" y="299" transform="matrix(-1 -1.224647e-16 1.224647e-16 -1 1120.7222 965.8095)" class="st4" width="159.6" height="367.7"/>
	<g id="XMLID_646_">
		<g id="XMLID_692_">
			<path id="XMLID_700_" class="st3" d="M605.7,357.8h18.6v-17.5c0-5.6-4.2-10.1-9.3-10.1l0,0c-5.1,0-9.3,4.5-9.3,10.1V357.8z"/>
			<path id="XMLID_699_" class="st6" d="M621.2,354.4v-14.2c0-3.7-2.8-6.7-6.2-6.7c-3.4,0-6.2,3-6.2,6.7v14.2H621.2z"/>
			<path id="XMLID_698_" class="st3" d="M569.3,357.8h18.6v-17.5c0-5.6-4.2-10.1-9.3-10.1l0,0c-5.1,0-9.3,4.5-9.3,10.1V357.8z"/>
			<path id="XMLID_697_" class="st6" d="M584.8,354.4v-14.2c0-3.7-2.8-6.7-6.2-6.7c-3.4,0-6.2,3-6.2,6.7v14.2H584.8z"/>
			<path id="XMLID_696_" class="st3" d="M532.9,357.8h18.6v-17.5c0-5.6-4.2-10.1-9.3-10.1l0,0c-5.1,0-9.3,4.5-9.3,10.1V357.8z"/>
			<path id="XMLID_695_" class="st6" d="M548.3,354.4v-14.2c0-3.7-2.8-6.7-6.2-6.7c-3.4,0-6.2,3-6.2,6.7v14.2H548.3z"/>
			<path id="XMLID_694_" class="st3" d="M496.4,357.8H515v-17.5c0-5.6-4.2-10.1-9.3-10.1l0,0c-5.1,0-9.3,4.5-9.3,10.1V357.8z"/>
			<path id="XMLID_693_" class="st6" d="M511.9,354.4v-14.2c0-3.7-2.8-6.7-6.2-6.7c-3.4,0-6.2,3-6.2,6.7v14.2H511.9z"/>
		</g>
		<g id="XMLID_683_">
			<path id="XMLID_691_" class="st3" d="M605.7,411.3h18.6v-17.5c0-5.6-4.2-10.1-9.3-10.1l0,0c-5.1,0-9.3,4.5-9.3,10.1V411.3z"/>
			<path id="XMLID_690_" class="st6" d="M621.2,408v-14.2c0-3.7-2.8-6.7-6.2-6.7c-3.4,0-6.2,3-6.2,6.7V408H621.2z"/>
			<path id="XMLID_689_" class="st3" d="M569.3,411.3h18.6v-17.5c0-5.6-4.2-10.1-9.3-10.1l0,0c-5.1,0-9.3,4.5-9.3,10.1V411.3z"/>
			<path id="XMLID_688_" class="st6" d="M584.8,408v-14.2c0-3.7-2.8-6.7-6.2-6.7c-3.4,0-6.2,3-6.2,6.7V408H584.8z"/>
			<path id="XMLID_687_" class="st3" d="M532.9,411.3h18.6v-17.5c0-5.6-4.2-10.1-9.3-10.1l0,0c-5.1,0-9.3,4.5-9.3,10.1V411.3z"/>
			<path id="XMLID_686_" class="st6" d="M548.3,408v-14.2c0-3.7-2.8-6.7-6.2-6.7c-3.4,0-6.2,3-6.2,6.7V408H548.3z"/>
			<path id="XMLID_685_" class="st3" d="M496.4,411.3H515v-17.5c0-5.6-4.2-10.1-9.3-10.1l0,0c-5.1,0-9.3,4.5-9.3,10.1V411.3z"/>
			<path id="XMLID_684_" class="st6" d="M511.9,408v-14.2c0-3.7-2.8-6.7-6.2-6.7c-3.4,0-6.2,3-6.2,6.7V408H511.9z"/>
		</g>
		<g id="XMLID_674_">
			<path id="XMLID_682_" class="st3" d="M605.7,464.9h18.6v-17.5c0-5.6-4.2-10.1-9.3-10.1l0,0c-5.1,0-9.3,4.5-9.3,10.1V464.9z"/>
			<path id="XMLID_681_" class="st6" d="M621.2,461.5v-14.2c0-3.7-2.8-6.7-6.2-6.7c-3.4,0-6.2,3-6.2,6.7v14.2H621.2z"/>
			<path id="XMLID_680_" class="st3" d="M569.3,464.9h18.6v-17.5c0-5.6-4.2-10.1-9.3-10.1l0,0c-5.1,0-9.3,4.5-9.3,10.1V464.9z"/>
			<path id="XMLID_679_" class="st6" d="M584.8,461.5v-14.2c0-3.7-2.8-6.7-6.2-6.7c-3.4,0-6.2,3-6.2,6.7v14.2H584.8z"/>
			<path id="XMLID_678_" class="st3" d="M532.9,464.9h18.6v-17.5c0-5.6-4.2-10.1-9.3-10.1l0,0c-5.1,0-9.3,4.5-9.3,10.1V464.9z"/>
			<path id="XMLID_677_" class="st6" d="M548.3,461.5v-14.2c0-3.7-2.8-6.7-6.2-6.7c-3.4,0-6.2,3-6.2,6.7v14.2H548.3z"/>
			<path id="XMLID_676_" class="st3" d="M496.4,464.9H515v-17.5c0-5.6-4.2-10.1-9.3-10.1l0,0c-5.1,0-9.3,4.5-9.3,10.1V464.9z"/>
			<path id="XMLID_675_" class="st6" d="M511.9,461.5v-14.2c0-3.7-2.8-6.7-6.2-6.7c-3.4,0-6.2,3-6.2,6.7v14.2H511.9z"/>
		</g>
		<g id="XMLID_665_">
			<path id="XMLID_673_" class="st3" d="M605.7,518.4h18.6v-17.5c0-5.6-4.2-10.1-9.3-10.1l0,0c-5.1,0-9.3,4.5-9.3,10.1V518.4z"/>
			<path id="XMLID_672_" class="st6" d="M621.2,515.1v-14.2c0-3.7-2.8-6.7-6.2-6.7c-3.4,0-6.2,3-6.2,6.7v14.2H621.2z"/>
			<path id="XMLID_671_" class="st3" d="M569.3,518.4h18.6v-17.5c0-5.6-4.2-10.1-9.3-10.1l0,0c-5.1,0-9.3,4.5-9.3,10.1V518.4z"/>
			<path id="XMLID_670_" class="st6" d="M584.8,515.1v-14.2c0-3.7-2.8-6.7-6.2-6.7c-3.4,0-6.2,3-6.2,6.7v14.2H584.8z"/>
			<path id="XMLID_669_" class="st3" d="M532.9,518.4h18.6v-17.5c0-5.6-4.2-10.1-9.3-10.1l0,0c-5.1,0-9.3,4.5-9.3,10.1V518.4z"/>
			<path id="XMLID_668_" class="st6" d="M548.3,515.1v-14.2c0-3.7-2.8-6.7-6.2-6.7c-3.4,0-6.2,3-6.2,6.7v14.2H548.3z"/>
			<path id="XMLID_667_" class="st3" d="M496.4,518.4H515v-17.5c0-5.6-4.2-10.1-9.3-10.1l0,0c-5.1,0-9.3,4.5-9.3,10.1V518.4z"/>
			<path id="XMLID_666_" class="st6" d="M511.9,515.1v-14.2c0-3.7-2.8-6.7-6.2-6.7c-3.4,0-6.2,3-6.2,6.7v14.2H511.9z"/>
		</g>
		<g id="XMLID_656_">
			<path id="XMLID_664_" class="st3" d="M605.7,572h18.6v-17.5c0-5.6-4.2-10.1-9.3-10.1l0,0c-5.1,0-9.3,4.5-9.3,10.1V572z"/>
			<path id="XMLID_663_" class="st6" d="M621.2,568.6v-14.2c0-3.7-2.8-6.7-6.2-6.7c-3.4,0-6.2,3-6.2,6.7v14.2H621.2z"/>
			<path id="XMLID_662_" class="st3" d="M569.3,572h18.6v-17.5c0-5.6-4.2-10.1-9.3-10.1l0,0c-5.1,0-9.3,4.5-9.3,10.1V572z"/>
			<path id="XMLID_661_" class="st6" d="M584.8,568.6v-14.2c0-3.7-2.8-6.7-6.2-6.7c-3.4,0-6.2,3-6.2,6.7v14.2H584.8z"/>
			<path id="XMLID_660_" class="st3" d="M532.9,572h18.6v-17.5c0-5.6-4.2-10.1-9.3-10.1l0,0c-5.1,0-9.3,4.5-9.3,10.1V572z"/>
			<path id="XMLID_659_" class="st6" d="M548.3,568.6v-14.2c0-3.7-2.8-6.7-6.2-6.7c-3.4,0-6.2,3-6.2,6.7v14.2H548.3z"/>
			<path id="XMLID_658_" class="st3" d="M496.4,572H515v-17.5c0-5.6-4.2-10.1-9.3-10.1l0,0c-5.1,0-9.3,4.5-9.3,10.1V572z"/>
			<path id="XMLID_657_" class="st6" d="M511.9,568.6v-14.2c0-3.7-2.8-6.7-6.2-6.7c-3.4,0-6.2,3-6.2,6.7v14.2H511.9z"/>
		</g>
		<g id="XMLID_651_">
			<path id="XMLID_655_" class="st3" d="M597.6,639.1h26.7v-25.2c0-8-6-14.4-13.3-14.4l0,0c-7.4,0-13.3,6.5-13.3,14.4V639.1z"/>
			<path id="XMLID_654_" class="st6" d="M619.8,634.3v-20.4c0-5.3-4-9.6-8.9-9.6c-4.9,0-8.9,4.3-8.9,9.6v20.4H619.8z"/>
			<path id="XMLID_653_" class="st3" d="M493.1,639.1h26.7v-25.2c0-8-6-14.4-13.3-14.4l0,0c-7.4,0-13.3,6.5-13.3,14.4V639.1z"/>
			<path id="XMLID_652_" class="st6" d="M515.3,634.3v-20.4c0-5.3-4-9.6-8.9-9.6s-8.9,4.3-8.9,9.6v20.4H515.3z"/>
		</g>
		<g id="XMLID_649_">
			<path id="XMLID_650_" class="st5" d="M611,597.6c7.4,0,13.3,6.5,13.3,14.4h-26.7C597.6,604,603.6,597.6,611,597.6z"/>
		</g>
		<g id="XMLID_647_">
			<path id="XMLID_648_" class="st5" d="M506.4,597.6c7.4,0,13.3,6.5,13.3,14.4h-26.7C493.1,604,499,597.6,506.4,597.6z"/>
		</g>
	</g>
	<path id="XMLID_645_" class="st3" d="M537.3,673.1h46.1v-54.5c0-13.8-10.3-24.9-23-24.9l0,0c-12.7,0-23,11.2-23,24.9V673.1z"/>
	
		<rect id="XMLID_644_" x="459.4" y="285.6" transform="matrix(-1 -1.224647e-16 1.224647e-16 -1 1120.7219 591.8073)" class="st5" width="202" height="20.6"/>
</g>
<g id="XMLID_705_">
	<g id="XMLID_858_">
		<polygon id="XMLID_868_" class="st1" points="243.5,516.9 491.8,516.9 468.1,468.1 267.2,468.1 		"/>
		<polygon id="XMLID_865_" class="st1" points="409,544.9 409,465.1 367.7,420.9 326.3,465.1 326.3,544.9 		"/>
		
			<rect id="XMLID_862_" x="251.8" y="517.1" transform="matrix(-1 -1.224647e-16 1.224647e-16 -1 735.3012 1184.5077)" class="st0" width="231.7" height="150.4"/>
		<polygon id="XMLID_859_" class="st2" points="400.5,666.9 400.5,468.9 367.7,433.8 334.8,468.9 334.8,666.9 		"/>
	</g>
	<g id="XMLID_741_">
		<g id="XMLID_800_">
			<g id="XMLID_839_">
				<g id="XMLID_849_">
					
						<rect id="XMLID_857_" x="450.6" y="528" transform="matrix(-1 -1.224647e-16 1.224647e-16 -1 924.1597 1083.2507)" class="st2" width="22.9" height="27.3"/>
					
						<rect id="XMLID_856_" x="453.3" y="531.2" transform="matrix(-1 -1.224647e-16 1.224647e-16 -1 924.1595 1083.251)" class="st7" width="17.5" height="20.9"/>
					<line id="XMLID_853_" class="st8" x1="462.1" y1="528" x2="462.1" y2="550.4"/>
					
						<rect id="XMLID_850_" x="446.4" y="548" transform="matrix(-1 -1.224647e-16 1.224647e-16 -1 924.1597 1103.3213)" class="st1" width="31.4" height="7.3"/>
				</g>
				<g id="XMLID_840_">
					
						<rect id="XMLID_848_" x="409.3" y="528" transform="matrix(-1 -1.224647e-16 1.224647e-16 -1 841.4943 1083.2507)" class="st2" width="22.9" height="27.3"/>
					
						<rect id="XMLID_847_" x="412" y="531.2" transform="matrix(-1 -1.224647e-16 1.224647e-16 -1 841.4943 1083.251)" class="st7" width="17.5" height="20.9"/>
					<line id="XMLID_844_" class="st8" x1="420.7" y1="528" x2="420.7" y2="550.4"/>
					
						<rect id="XMLID_841_" x="405.1" y="548" transform="matrix(-1 -1.224647e-16 1.224647e-16 -1 841.4943 1103.3213)" class="st1" width="31.4" height="7.3"/>
				</g>
			</g>
			<g id="XMLID_820_">
				<g id="XMLID_830_">
					
						<rect id="XMLID_838_" x="450.6" y="570.3" transform="matrix(-1 -1.224647e-16 1.224647e-16 -1 924.1597 1167.9851)" class="st2" width="22.9" height="27.3"/>
					
						<rect id="XMLID_837_" x="453.3" y="573.5" transform="matrix(-1 -1.224647e-16 1.224647e-16 -1 924.1595 1167.9854)" class="st7" width="17.5" height="20.9"/>
					<line id="XMLID_834_" class="st8" x1="462.1" y1="570.3" x2="462.1" y2="592.7"/>
					
						<rect id="XMLID_831_" x="446.4" y="590.4" transform="matrix(-1 -1.224647e-16 1.224647e-16 -1 924.1597 1188.0554)" class="st1" width="31.4" height="7.3"/>
				</g>
				<g id="XMLID_821_">
					
						<rect id="XMLID_829_" x="409.3" y="570.3" transform="matrix(-1 -1.224647e-16 1.224647e-16 -1 841.4943 1167.9851)" class="st2" width="22.9" height="27.3"/>
					
						<rect id="XMLID_828_" x="412" y="573.5" transform="matrix(-1 -1.224647e-16 1.224647e-16 -1 841.4943 1167.9854)" class="st7" width="17.5" height="20.9"/>
					<line id="XMLID_825_" class="st8" x1="420.7" y1="570.3" x2="420.7" y2="592.7"/>
					
						<rect id="XMLID_822_" x="405.1" y="590.4" transform="matrix(-1 -1.224647e-16 1.224647e-16 -1 841.4943 1188.0554)" class="st1" width="31.4" height="7.3"/>
				</g>
			</g>
			<g id="XMLID_801_">
				<g id="XMLID_811_">
					
						<rect id="XMLID_819_" x="450.6" y="612.7" transform="matrix(-1 -1.224647e-16 1.224647e-16 -1 924.1597 1252.7191)" class="st2" width="22.9" height="27.3"/>
					
						<rect id="XMLID_818_" x="453.3" y="615.9" transform="matrix(-1 -1.224647e-16 1.224647e-16 -1 924.1595 1252.7195)" class="st7" width="17.5" height="20.9"/>
					<line id="XMLID_815_" class="st8" x1="462.1" y1="612.7" x2="462.1" y2="635.1"/>
					
						<rect id="XMLID_812_" x="446.4" y="632.8" transform="matrix(-1 -1.224647e-16 1.224647e-16 -1 924.1597 1272.7898)" class="st1" width="31.4" height="7.3"/>
				</g>
				<g id="XMLID_802_">
					
						<rect id="XMLID_810_" x="409.3" y="612.7" transform="matrix(-1 -1.224647e-16 1.224647e-16 -1 841.4943 1252.7191)" class="st2" width="22.9" height="27.3"/>
					
						<rect id="XMLID_809_" x="412" y="615.9" transform="matrix(-1 -1.224647e-16 1.224647e-16 -1 841.4943 1252.7195)" class="st7" width="17.5" height="20.9"/>
					<line id="XMLID_806_" class="st8" x1="420.7" y1="612.7" x2="420.7" y2="635.1"/>
					
						<rect id="XMLID_803_" x="405.1" y="632.8" transform="matrix(-1 -1.224647e-16 1.224647e-16 -1 841.4943 1272.7898)" class="st1" width="31.4" height="7.3"/>
				</g>
			</g>
		</g>
		<g id="XMLID_742_">
			<g id="XMLID_781_">
				<g id="XMLID_791_">
					
						<rect id="XMLID_799_" x="303.1" y="528" transform="matrix(-1 -1.224647e-16 1.224647e-16 -1 629.1074 1083.2507)" class="st2" width="22.9" height="27.3"/>
					
						<rect id="XMLID_798_" x="305.8" y="531.2" transform="matrix(-1 -1.224647e-16 1.224647e-16 -1 629.1074 1083.251)" class="st7" width="17.5" height="20.9"/>
					<line id="XMLID_795_" class="st8" x1="314.6" y1="528" x2="314.6" y2="550.4"/>
					
						<rect id="XMLID_792_" x="298.9" y="548" transform="matrix(-1 -1.224647e-16 1.224647e-16 -1 629.1074 1103.3213)" class="st1" width="31.4" height="7.3"/>
				</g>
				<g id="XMLID_782_">
					
						<rect id="XMLID_790_" x="261.8" y="528" transform="matrix(-1 -1.224647e-16 1.224647e-16 -1 546.4421 1083.2507)" class="st2" width="22.9" height="27.3"/>
					
						<rect id="XMLID_789_" x="264.5" y="531.2" transform="matrix(-1 -1.224647e-16 1.224647e-16 -1 546.4424 1083.251)" class="st7" width="17.5" height="20.9"/>
					<line id="XMLID_786_" class="st8" x1="273.2" y1="528" x2="273.2" y2="550.4"/>
					
						<rect id="XMLID_783_" x="257.5" y="548" transform="matrix(-1 -1.224647e-16 1.224647e-16 -1 546.4424 1103.3213)" class="st1" width="31.4" height="7.3"/>
				</g>
			</g>
			<g id="XMLID_762_">
				<g id="XMLID_772_">
					
						<rect id="XMLID_780_" x="303.1" y="570.3" transform="matrix(-1 -1.224647e-16 1.224647e-16 -1 629.1074 1167.9851)" class="st2" width="22.9" height="27.3"/>
					
						<rect id="XMLID_779_" x="305.8" y="573.5" transform="matrix(-1 -1.224647e-16 1.224647e-16 -1 629.1074 1167.9854)" class="st7" width="17.5" height="20.9"/>
					<line id="XMLID_776_" class="st8" x1="314.6" y1="570.3" x2="314.6" y2="592.7"/>
					
						<rect id="XMLID_773_" x="298.9" y="590.4" transform="matrix(-1 -1.224647e-16 1.224647e-16 -1 629.1074 1188.0554)" class="st1" width="31.4" height="7.3"/>
				</g>
				<g id="XMLID_763_">
					
						<rect id="XMLID_771_" x="261.8" y="570.3" transform="matrix(-1 -1.224647e-16 1.224647e-16 -1 546.4421 1167.9851)" class="st2" width="22.9" height="27.3"/>
					
						<rect id="XMLID_770_" x="264.5" y="573.5" transform="matrix(-1 -1.224647e-16 1.224647e-16 -1 546.4424 1167.9854)" class="st7" width="17.5" height="20.9"/>
					<line id="XMLID_767_" class="st8" x1="273.2" y1="570.3" x2="273.2" y2="592.7"/>
					
						<rect id="XMLID_764_" x="257.5" y="590.4" transform="matrix(-1 -1.224647e-16 1.224647e-16 -1 546.4424 1188.0554)" class="st1" width="31.4" height="7.3"/>
				</g>
			</g>
			<g id="XMLID_743_">
				<g id="XMLID_753_">
					
						<rect id="XMLID_761_" x="303.1" y="612.7" transform="matrix(-1 -1.224647e-16 1.224647e-16 -1 629.1074 1252.7191)" class="st2" width="22.9" height="27.3"/>
					
						<rect id="XMLID_760_" x="305.8" y="615.9" transform="matrix(-1 -1.224647e-16 1.224647e-16 -1 629.1074 1252.7195)" class="st7" width="17.5" height="20.9"/>
					<line id="XMLID_757_" class="st8" x1="314.6" y1="612.7" x2="314.6" y2="635.1"/>
					
						<rect id="XMLID_754_" x="298.9" y="632.8" transform="matrix(-1 -1.224647e-16 1.224647e-16 -1 629.1074 1272.7898)" class="st1" width="31.4" height="7.3"/>
				</g>
				<g id="XMLID_744_">
					
						<rect id="XMLID_752_" x="261.8" y="612.7" transform="matrix(-1 -1.224647e-16 1.224647e-16 -1 546.4421 1252.7191)" class="st2" width="22.9" height="27.3"/>
					
						<rect id="XMLID_751_" x="264.5" y="615.9" transform="matrix(-1 -1.224647e-16 1.224647e-16 -1 546.4424 1252.7195)" class="st7" width="17.5" height="20.9"/>
					<line id="XMLID_748_" class="st8" x1="273.2" y1="612.7" x2="273.2" y2="635.1"/>
					
						<rect id="XMLID_745_" x="257.5" y="632.8" transform="matrix(-1 -1.224647e-16 1.224647e-16 -1 546.4424 1272.7898)" class="st1" width="31.4" height="7.3"/>
				</g>
			</g>
		</g>
	</g>
	
		<rect id="XMLID_740_" x="350.1" y="612.7" transform="matrix(-1 -1.224647e-16 1.224647e-16 -1 735.3009 1275.8291)" class="st7" width="35.1" height="50.4"/>
	<path id="XMLID_737_" class="st1" d="M347.6,620.6h40.1v-12.9v0c-11.9-9.6-28.2-9.6-40.1,0v0V620.6z"/>
	
		<rect id="XMLID_734_" x="341" y="657.3" transform="matrix(-1 -1.224647e-16 1.224647e-16 -1 735.3007 1325.2153)" class="st0" width="53.3" height="10.7"/>
	
		<rect id="XMLID_731_" x="346.2" y="650.4" transform="matrix(-1 -1.224647e-16 1.224647e-16 -1 735.3007 1311.4)" class="st0" width="43" height="10.7"/>
	<g id="XMLID_706_">
		<g id="XMLID_723_">
			
				<rect id="XMLID_728_" x="352.1" y="553.3" transform="matrix(-1 -1.224647e-16 1.224647e-16 -1 735.3007 1140.5435)" class="st0" width="31" height="33.8"/>
			
				<rect id="XMLID_727_" x="355.8" y="557.3" transform="matrix(-1 -1.224647e-16 1.224647e-16 -1 735.3011 1140.5432)" class="st7" width="23.8" height="25.9"/>
			
				<rect id="XMLID_724_" x="346.4" y="578.2" transform="matrix(-1 -1.224647e-16 1.224647e-16 -1 735.3009 1165.4)" class="st1" width="42.6" height="9"/>
		</g>
		<g id="XMLID_715_">
			
				<rect id="XMLID_720_" x="352.1" y="509.9" transform="matrix(-1 -1.224647e-16 1.224647e-16 -1 735.3007 1053.6479)" class="st0" width="31" height="33.8"/>
			
				<rect id="XMLID_719_" x="355.8" y="513.9" transform="matrix(-1 -1.224647e-16 1.224647e-16 -1 735.3011 1053.6482)" class="st7" width="23.8" height="25.9"/>
			
				<rect id="XMLID_716_" x="346.4" y="534.8" transform="matrix(-1 -1.224647e-16 1.224647e-16 -1 735.3009 1078.5045)" class="st1" width="42.6" height="9"/>
		</g>
		<g id="XMLID_707_">
			
				<rect id="XMLID_712_" x="352.1" y="466.5" transform="matrix(-1 -1.224647e-16 1.224647e-16 -1 735.3007 966.7528)" class="st0" width="31" height="33.8"/>
			
				<rect id="XMLID_711_" x="355.8" y="470.4" transform="matrix(-1 -1.224647e-16 1.224647e-16 -1 735.3011 966.7528)" class="st7" width="23.8" height="25.9"/>
			
				<rect id="XMLID_708_" x="346.4" y="491.3" transform="matrix(-1 -1.224647e-16 1.224647e-16 -1 735.3009 991.6093)" class="st1" width="42.6" height="9"/>
		</g>
	</g>
	<g id="XMLID_824_">
		<polygon id="XMLID_854_" class="st1" points="241.7,554.1 177.7,554.1 180.9,525 238.4,525 		"/>
		<rect id="XMLID_852_" x="179.7" y="554.1" class="st9" width="59.9" height="105.4"/>
		<rect id="XMLID_851_" x="179.7" y="554.1" class="st4" width="59.9" height="7.9"/>
		<g id="XMLID_826_">
			<g id="XMLID_843_">
				<path id="XMLID_846_" class="st1" d="M203.7,612.2h-12.3v-9.8c0-3.1,2.7-5.6,6.1-5.6l0,0c3.4,0,6.1,2.5,6.1,5.6V612.2z"/>
				<path id="XMLID_845_" class="st1" d="M227.6,612.2h-12.3v-9.8c0-3.1,2.7-5.6,6.1-5.6l0,0c3.4,0,6.1,2.5,6.1,5.6V612.2z"/>
			</g>
			<g id="XMLID_835_">
				<path id="XMLID_842_" class="st1" d="M203.7,647.3h-12.3v-16.4c0-5.2,2.7-9.4,6.1-9.4l0,0c3.4,0,6.1,4.2,6.1,9.4V647.3z"/>
				<path id="XMLID_836_" class="st1" d="M227.6,647.3h-12.3v-16.4c0-5.2,2.7-9.4,6.1-9.4l0,0c3.4,0,6.1,4.2,6.1,9.4V647.3z"/>
			</g>
			<g id="XMLID_827_">
				<path id="XMLID_833_" class="st1" d="M203.7,588.3h-12.3v-9.8c0-3.1,2.7-5.6,6.1-5.6l0,0c3.4,0,6.1,2.5,6.1,5.6V588.3z"/>
				<path id="XMLID_832_" class="st1" d="M227.6,588.3h-12.3v-9.8c0-3.1,2.7-5.6,6.1-5.6l0,0c3.4,0,6.1,2.5,6.1,5.6V588.3z"/>
			</g>
		</g>
	</g>
	<g id="XMLID_1_">
		<polygon id="XMLID_823_" class="st3" points="165.1,587.9 101,587.9 104.3,558.8 161.8,558.8 		"/>
		<rect id="XMLID_817_" x="103.1" y="587.9" class="st9" width="59.9" height="70.6"/>
		<rect id="XMLID_607_" x="103.1" y="587.9" class="st1" width="59.9" height="7.9"/>
		<g id="XMLID_474_">
			<g id="XMLID_491_">
				<path id="XMLID_493_" class="st1" d="M127.1,646h-12.3v-9.8c0-3.1,2.7-5.6,6.1-5.6l0,0c3.4,0,6.1,2.5,6.1,5.6V646z"/>
				<path id="XMLID_492_" class="st1" d="M150.9,646h-12.3v-9.8c0-3.1,2.7-5.6,6.1-5.6l0,0c3.4,0,6.1,2.5,6.1,5.6V646z"/>
			</g>
			<g id="XMLID_488_">
				<path id="XMLID_490_" class="st1" d="M127.1,622.1h-12.3v-9.8c0-3.1,2.7-5.6,6.1-5.6l0,0c3.4,0,6.1,2.5,6.1,5.6V622.1z"/>
				<path id="XMLID_489_" class="st1" d="M150.9,622.1h-12.3v-9.8c0-3.1,2.7-5.6,6.1-5.6l0,0c3.4,0,6.1,2.5,6.1,5.6V622.1z"/>
			</g>
		</g>
	</g>
</g>
<g id="XMLID_871_">
	
		<rect id="XMLID_881_" x="1000.4" y="556.7" transform="matrix(-1 -1.224647e-16 1.224647e-16 -1 2171.4314 1219.2961)" class="st1" width="170.7" height="105.9"/>
	
		<rect id="XMLID_880_" x="993.2" y="538.4" transform="matrix(-1 -1.224647e-16 1.224647e-16 -1 2171.4314 1095.0796)" class="st3" width="185.1" height="18.3"/>
	
		<rect id="XMLID_877_" x="1034" y="600.5" transform="matrix(-1 -1.224647e-16 1.224647e-16 -1 2171.4312 1263.0602)" class="st0" width="103.4" height="62.1"/>
	
		<rect id="XMLID_874_" x="1043.9" y="612.3" transform="matrix(-1 -1.224647e-16 1.224647e-16 -1 2171.4314 1274.9175)" class="st2" width="83.6" height="50.3"/>
	
		<rect id="XMLID_873_" x="1014.1" y="590.1" transform="matrix(-1 -1.224647e-16 1.224647e-16 -1 2171.4314 1194.4467)" class="st3" width="143.2" height="14.3"/>
	
		<rect id="XMLID_872_" x="1037.2" y="562.3" transform="matrix(-1 -1.224647e-16 1.224647e-16 -1 2171.4314 1148.2074)" class="st5" width="97.1" height="23.6"/>
</g>
</svg>
